<svg xmlns="http://www.w3.org/2000/svg" xmlns:xlink="http://www.w3.org/1999/xlink" width="1024" height="1024" viewBox="0 0 1024 1024">
  <defs>
    <linearGradient id="linear-gradient" y1="-0.012" x2="0.5" y2="1" gradientUnits="objectBoundingBox">
      <stop offset="0" stop-color="#bfccff"/>
      <stop offset="1" stop-color="#a0b3ff"/>
    </linearGradient>
    <clipPath id="clip-Journal_coloured_optically_aligned">
      <rect width="1024" height="1024"/>
    </clipPath>
  </defs>
  <g id="Journal_coloured_optically_aligned" data-name="Journal coloured optically aligned" clip-path="url(#clip-Journal_coloured_optically_aligned)">
    <rect width="1024" height="1024" fill="url(#linear-gradient)"/>
    <path id="Border" d="M-838-18415.994c-120.2,0-218-97.795-218-218v-213h-63a15,15,0,0,1-15-15v-48a15,15,0,0,1,15-15h65.2v-.006h79.243v.006H-915a15,15,0,0,1,15,15v48a15,15,0,0,1-15,15h-63v213a141.187,141.187,0,0,0,2.844,28.213A139.559,139.559,0,0,0-967-18579.5a140.032,140.032,0,0,0,12.907,23.781A140.872,140.872,0,0,0-937-18535a141.4,141.4,0,0,0,20.721,17.1A140.125,140.125,0,0,0-892.5-18505a139.056,139.056,0,0,0,26.28,8.154,140.807,140.807,0,0,0,28.218,2.85h260a140.724,140.724,0,0,0,28.213-2.85,138.947,138.947,0,0,0,26.28-8.154,139.941,139.941,0,0,0,23.781-12.906,141.4,141.4,0,0,0,20.721-17.1,140.869,140.869,0,0,0,17.095-20.717A139.7,139.7,0,0,0-449-18579.5a139.2,139.2,0,0,0,8.159-26.279,141.187,141.187,0,0,0,2.844-28.213V-18894a141.216,141.216,0,0,0-2.844-28.213,139.2,139.2,0,0,0-8.159-26.279,139.7,139.7,0,0,0-12.907-23.781A140.8,140.8,0,0,0-479.005-18993a140.745,140.745,0,0,0-20.721-17.094A140,140,0,0,0-523.507-19023a138.98,138.98,0,0,0-26.28-8.154A140.792,140.792,0,0,0-578-19034H-838a140.129,140.129,0,0,0-39.907,5.766,139.336,139.336,0,0,0-35.417,16.2,140.682,140.682,0,0,0-29.268,24.965,140.206,140.206,0,0,0-21.459,32.07l-83.267,0a216.809,216.809,0,0,1,29.94-62.762,220.085,220.085,0,0,1,21.8-26.734,219.767,219.767,0,0,1,25.7-22.986,217.266,217.266,0,0,1,61.107-32.73A216.835,216.835,0,0,1-838-19112h260c120.2,0,218,97.795,218,218v260.008c0,120.205-97.8,218-218,218Z" transform="translate(1229 19276)"/>
    <path id="Flag" d="M-17932-22618h0a14.906,14.906,0,0,1-10.605-4.395A14.9,14.9,0,0,1-17947-22633v-292a14.9,14.9,0,0,1,4.393-10.607,14.9,14.9,0,0,1,10.605-4.4h196a14.9,14.9,0,0,1,10.605,4.4A14.9,14.9,0,0,1-17721-22925v292a14.9,14.9,0,0,1-4.393,10.605A14.9,14.9,0,0,1-17736-22618l-98-98-98,98Z" transform="translate(18356 23291)"/>
  </g>
</svg>
