<svg xmlns="http://www.w3.org/2000/svg" xmlns:xlink="http://www.w3.org/1999/xlink" width="1024" height="1024" viewBox="0 0 1024 1024">
  <defs>
    <clipPath id="clip-path">
      <rect id="Outer_Guide" data-name="Outer Guide" width="1024" height="1024" rx="228" fill="#fff"/>
    </clipPath>
    <clipPath id="clip-Todo_with_guide">
      <rect width="1024" height="1024"/>
    </clipPath>
  </defs>
  <g id="Todo_with_guide" data-name="Todo with guide" clip-path="url(#clip-Todo_with_guide)">
    <rect width="1024" height="1024" fill="#fff"/>
    <g id="Guides" opacity="0.5">
      <g id="Guidelines" clip-path="url(#clip-path)">
        <path id="Bottom_Horizontal" data-name="Bottom Horizontal" d="M0,703H1024" fill="none" stroke="#007aff" stroke-width="1"/>
        <path id="Middle_Horizontal" data-name="Middle Horizontal" d="M0,512H1024" fill="none" stroke="#007aff" stroke-width="1"/>
        <path id="Top_Horizontal" data-name="Top Horizontal" d="M0,321H1024" fill="none" stroke="#007aff" stroke-width="1"/>
        <path id="Right_Vertical" data-name="Right Vertical" d="M703,1024V0" fill="none" stroke="#007aff" stroke-width="1"/>
        <path id="Middle_Vertical" data-name="Middle Vertical" d="M512,1024V0" fill="none" stroke="#007aff" stroke-width="1"/>
        <path id="Left_Vertical" data-name="Left Vertical" d="M321,1024V0" fill="none" stroke="#007aff" stroke-width="1"/>
        <path id="Descending_Diagonal" data-name="Descending Diagonal" d="M1024,1024,0,0" fill="none" stroke="#007aff" stroke-width="1"/>
        <path id="Ascending_Diagonal" data-name="Ascending Diagonal" d="M0,1024,1024,0" fill="none" stroke="#007aff" stroke-width="1"/>
        <rect id="Inner_Guide" data-name="Inner Guide" width="890" height="890" transform="translate(67 67)" fill="none" stroke="#007aff" stroke-width="1"/>
        <circle id="Inner_Circle" data-name="Inner Circle" cx="191" cy="191" r="191" transform="translate(321 321)" fill="none" stroke="#007aff" stroke-width="1"/>
        <circle id="Middle_Circle" data-name="Middle Circle" cx="269" cy="269" r="269" transform="translate(243 243)" fill="none" stroke="#007aff" stroke-width="1"/>
        <circle id="Outer_Circle" data-name="Outer Circle" cx="445" cy="445" r="445" transform="translate(67 67)" fill="none" stroke="#007aff" stroke-width="1"/>
      </g>
      <rect id="App_Border" data-name="App Border" width="1023" height="1023" rx="227.5" transform="translate(0.5 0.5)" fill="none" stroke="#ff3b30" stroke-width="1"/>
    </g>
    <path id="Border" d="M-2010-18319.535c-120.2,0-218-97.793-218-218v-260c0-120.205,97.8-218,218-218h83.844l-36.921-36.922a14.99,14.99,0,0,1,0-21.211l33.943-33.943a14.992,14.992,0,0,1,21.212,0l121.624,121.621a14.942,14.942,0,0,1,4.389,10.768,14.94,14.94,0,0,1-4.389,10.764l-121.624,121.621a14.953,14.953,0,0,1-10.606,4.393,14.945,14.945,0,0,1-10.606-4.393l-33.943-33.943a14.994,14.994,0,0,1,0-21.207l39.548-39.549-86.471,0a141.1,141.1,0,0,0-28.215,2.84,139.934,139.934,0,0,0-26.282,8.154,140.564,140.564,0,0,0-23.778,12.908,141.617,141.617,0,0,0-20.722,17.1,141.42,141.42,0,0,0-17.1,20.723,140.048,140.048,0,0,0-12.9,23.783,139.04,139.04,0,0,0-8.159,26.277,141.2,141.2,0,0,0-2.844,28.215v260a141.2,141.2,0,0,0,2.844,28.215,139.04,139.04,0,0,0,8.159,26.277,140,140,0,0,0,12.9,23.783,141.569,141.569,0,0,0,17.1,20.717,141.032,141.032,0,0,0,20.722,17.1,139.964,139.964,0,0,0,23.778,12.908,139.794,139.794,0,0,0,26.282,8.154,140.883,140.883,0,0,0,28.215,2.844h260a140.954,140.954,0,0,0,28.215-2.844,139.635,139.635,0,0,0,26.277-8.154,140.2,140.2,0,0,0,23.783-12.908,140.993,140.993,0,0,0,20.718-17.1,140.964,140.964,0,0,0,17.1-20.717,140.042,140.042,0,0,0,12.908-23.783,139.025,139.025,0,0,0,8.155-26.277,140.854,140.854,0,0,0,2.844-28.215v-260a140.854,140.854,0,0,0-2.844-28.215,139.025,139.025,0,0,0-8.155-26.277,140.08,140.08,0,0,0-12.908-23.783,141.42,141.42,0,0,0-17.1-20.723,141.842,141.842,0,0,0-20.718-17.1,140.422,140.422,0,0,0-23.783-12.908,139.884,139.884,0,0,0-26.277-8.154,141.1,141.1,0,0,0-28.215-2.84h-2v-78h2c120.2,0,218,97.793,218,218v260c0,120.205-97.793,218-218,218Z" transform="translate(2391.001 19179.531)"/>
    <path id="Check" d="M-2114.861-18836.576l-102.533-102.527a15.007,15.007,0,0,1,0-21.215l33.941-33.941a15.006,15.006,0,0,1,21.214,0l57.8,57.8,164.935-164.936a15,15,0,0,1,21.214,0l33.941,33.939a15,15,0,0,1,0,21.215l-173.58,173.576a15.145,15.145,0,0,1-1.784,2.148l-33.941,33.936a14.945,14.945,0,0,1-10.6,4.395A14.945,14.945,0,0,1-2114.861-18836.576Z" transform="translate(2576.74 19488.641)"/>
  </g>
</svg>
